<svg id="Layer_1" data-name="Layer 1" xmlns="http://www.w3.org/2000/svg" viewBox="0 0 232.75 105.85"><defs><style>.cls-1,.cls-2{fill:#fff;}.cls-2{font-size:75.77px;font-family:Pacifico-Regular, Pacifico;}.cls-3{letter-spacing:0em;}</style></defs><title>site-logo-white</title><path class="cls-1" d="M79.2,10.69a4,4,0,0,1,.8,2.58q0,5.22-5.61,4.85l-2.65-.23q-4.47-.37-8.9-.61t-9.28-.22H50.15q-.91,11.21-1.9,20.46l13-.23c1.87,0,3.12.33,3.75,1a3.66,3.66,0,0,1,1,2.66,5.41,5.41,0,0,1-1.51,4,6,6,0,0,1-4.32,1.48h-13l-.45,3.26Q45.14,62.22,40,67.52T25.67,72.83a20.31,20.31,0,0,1-9.47-2.24,16,16,0,0,1-6.36-5.42A5.55,5.55,0,0,1,9,62.07a5.8,5.8,0,0,1,.87-3.19A2.54,2.54,0,0,1,12,57.52a3,3,0,0,1,1.78.61,11.68,11.68,0,0,1,2.24,2.35,11,11,0,0,0,9,4.77,9,9,0,0,0,7.23-3.53c2-2.35,3.2-6,3.75-11.1l.46-4.16H32.87a4.66,4.66,0,0,1-3-1,3.33,3.33,0,0,1-1.25-2.8,5,5,0,0,1,1.21-3.6,4.75,4.75,0,0,1,3.56-1.25c1.41,0,2.8,0,4.17-.08q.9-8.33,2-20.23-8.19.76-11.52,2.65a6.1,6.1,0,0,0-3.33,5.61A9,9,0,0,0,26.2,30.7a2.44,2.44,0,0,1,.46,1.36,2.9,2.9,0,0,1-1.52,2.39,6,6,0,0,1-3.41,1,5.21,5.21,0,0,1-3.48-1.21,7.38,7.38,0,0,1-1.75-3.11,15.68,15.68,0,0,1-.83-5.23q0-9.39,9.66-13.64T53.56,8A169.19,169.19,0,0,1,76.29,9.4,4.5,4.5,0,0,1,79.2,10.69Z" transform="translate(-9 -2.64)"/><path class="cls-1" d="M133.62,38.65a23.42,23.42,0,0,0-10.38-9.43,36.76,36.76,0,0,0-16-3.22,53,53,0,0,0-13.56,1.86,39.44,39.44,0,0,0-12.28,5.41,6.07,6.07,0,0,0-2,2.16c-.11.2-.63.92-1.32,1.87a13.82,13.82,0,0,0-3.14,1.35,22,22,0,0,0-6.1,5.84A43,43,0,0,0,63.2,55.1q.31-3.35.76-5.61c.3-1.52.71-3.29,1.21-5.31a28.62,28.62,0,0,0,1.14-5.45,1.55,1.55,0,0,0-.61-1.44,4.28,4.28,0,0,0-2.12-.38,7.86,7.86,0,0,0-4.35,1A5.75,5.75,0,0,0,57,41.15a61.69,61.69,0,0,0-2.8,18.72c0,4.44.39,7.68,1.17,9.7a4.15,4.15,0,0,0,4.06,3,4.36,4.36,0,0,0,3.44-1.25,11.84,11.84,0,0,0,1.93-4.81,52,52,0,0,1,3-8.79A39.81,39.81,0,0,1,71.43,51c1.18-1.69,2.1-2.54,2.76-2.54s.83.41.83,1.22a39.75,39.75,0,0,1-1,6.59A46.93,46.93,0,0,0,73,63.89c0,2.82.65,5,2,6.47a7.36,7.36,0,0,0,5.83,2.24A15.32,15.32,0,0,0,85.22,72Q84,79.61,83.61,85.25a5.24,5.24,0,0,0,1,3.94q1.14,1.22,4.17,1.59a73.21,73.21,0,0,0,9.93.76q12,0,20.76-4.7a31.72,31.72,0,0,0,13.26-13.22,41.82,41.82,0,0,0,4.55-20A29.25,29.25,0,0,0,133.62,38.65ZM119.56,75Q113,83,99.75,83c-1.92,0-3.64-.08-5.15-.23a191.05,191.05,0,0,1,2.8-19.43,142.13,142.13,0,0,1,3.94-16.26,7.82,7.82,0,0,0,.45-2.42q0-2.58-4.62-2.58a9.9,9.9,0,0,0-4.17.76,4,4,0,0,0-2.12,2.65c-1.57,5.74-2.9,11.7-4.08,17.81a4.75,4.75,0,0,1-2.38,1c-1.47,0-2.2-1-2.2-3a52.55,52.55,0,0,1,1.44-8.71,61.14,61.14,0,0,0,1.67-10.69,6.43,6.43,0,0,0-.16-1.12,44.27,44.27,0,0,1,9.24-4.18,39.38,39.38,0,0,1,12-1.89q9.39,0,14.55,4.92t5.15,13.94Q126.12,66.93,119.56,75Z" transform="translate(-9 -2.64)"/><text class="cls-2" transform="translate(129.02 71.23)">d<tspan class="cls-3" x="39.02" y="0">e</tspan><tspan x="69.18" y="0">v</tspan></text></svg>